PathFileType	4	(X/Y/Z)	18_2_rein_88_p0_0-526.trc
DataRate	CameraRate	NumFrames	NumMarkers	Units	OrigDataRate	OrigDataStartFrame	OrigNumFrames
60.0	60.0	4	27	m	60.0	0	527
Frame#	Time	RHip			RKnee			RAnkle			RBigToe			RSmallToe			RHeel			LHip			LKnee			LAnkle			LBigToe			LSmallToe			LHeel			Neck			Head			Nose			RShoulder			RElbow			RWrist			RThumb			RIndex			RPinky			LShoulder			LElbow			LWrist			LThumb			LIndex			LPinky			
		X1	Y1	Z1	X2	Y2	Z2	X3	Y3	Z3	X4	Y4	Z4	X5	Y5	Z5	X6	Y6	Z6	X7	Y7	Z7	X8	Y8	Z8	X9	Y9	Z9	X10	Y10	Z10	X11	Y11	Z11	X12	Y12	Z12	X13	Y13	Z13	X14	Y14	Z14	X15	Y15	Z15	X16	Y16	Z16	X17	Y17	Z17	X18	Y18	Z18	X19	Y19	Z19	X20	Y20	Z20	X21	Y21	Z21	X22	Y22	Z22	X23	Y23	Z23	X24	Y24	Z24	X25	Y25	Z25	X26	Y26	Z26	X27	Y27	Z27	
0	0.0	0.25245848332663906	0.42596556251074197	1.2268290623247236	0.23494652555108955	0.5193189484774864	1.627594846462927	0.23824570346262383	0.6060369676923937	2.013451122648456	0.21851703505249329	0.42575306979563027	2.0549041002999986	0.2664603239841945	0.44145637450987113	2.051481288678584	0.22089613829156554	0.6815982504005423	2.070052188848781	0.0364302099323453	0.42223385633909066	1.2263460760035045	0.03977296427279341	0.5086197631494296	1.6332988133999395	0.04011456090060334	0.569178167906391	2.017581921496515	0.06750272609348891	0.4610472831048921	2.0734612143646665	0.009530246407447603	0.455639411106822	2.0589870452132097	0.04899208658371189	0.6185524853585722	2.0610768003494044	0.1628710842489835	0.35200399249526354	0.702740848819037	0.181075568405454	0.2836150911849901	0.46279972580888934	0.1653511103968013	0.23000286475129642	0.5888852722420121	0.3142612949168359	0.3538521596444007	0.7971366518385583	0.3735605384202486	0.4210497262378911	1.0619322390823465	0.34682200835293703	0.3771374365441909	1.3063797130935266	0.2880297259835064	0.32593152896875505	1.4078254071771636	0.30898942079906755	0.35724596826556104	1.4514201196897143	0.3312907967846766	0.4015085809022519	1.4553025116321954	0.01476738755866988	0.37009951872655394	0.7774636386657863	-0.05865007958765882	0.40303111121454915	1.0386188087310395	-0.04668435041944549	0.36563815406703865	1.277863539585863	-0.004726512364538148	0.3453580931683727	1.3954865094488735	-0.030495299974633242	0.3366663029593517	1.4140553181409408	-0.07122847104679003	0.40397555357496684	1.4247779779364107
1	0.016666666666666666	0.2533997587925192	0.43036908191943735	1.2442308713781542	0.2351317947978184	0.519959313172071	1.6277541646215683	0.23248138966583465	0.6059797426063764	2.0178642074023103	0.2152743064902136	0.41277905574222573	2.0483627313457062	0.26649601462339495	0.441438900522581	2.050963301664436	0.21962667724328308	0.6827880817273165	2.07613751289891	0.03745141394320497	0.42558286504430765	1.2402300309447818	0.04007662012365275	0.5064623445471443	1.6380294226756584	0.03898241467256994	0.5704566801220435	2.0221381980850075	0.07797060695875119	0.44848073457666376	2.0664317361806623	0.008365026267530964	0.4565520850068239	2.062842572711682	0.04870293094408973	0.6183176739605887	2.060466038917812	0.162831155465085	0.35185446155482036	0.7026930231897299	0.1811165256544141	0.28343903485656635	0.46277679263382265	0.15880389167332484	0.20794426603670693	0.5855375828067902	0.31079327034597415	0.3425936307282758	0.7961511122872355	0.3735874886509489	0.4211955726492315	1.0620870676565841	0.34674573836595024	0.3771233835616606	1.3062875205691684	0.28663581458977483	0.32471117922853415	1.40732334313292	0.30483543473080976	0.3465486551707246	1.444326671029097	0.33107121178914034	0.40224846939669173	1.45179791976184	0.016365447427654722	0.3585120193006831	0.780091364003686	-0.06120927867611657	0.39158885864224596	1.0331546701187087	-0.04641108123228214	0.3680674099667756	1.282535452776064	-0.008199439119120173	0.34397890643180157	1.3949389933536644	-0.03050695612371775	0.33637402322652155	1.4136551752663178	-0.07369335386402653	0.38817020862440726	1.4167553370258343
2	0.03333333333333333	0.2533786836863209	0.4302402175202407	1.2440373484165574	0.2349864293924081	0.519536130108219	1.6278653748853997	0.2323925702363311	0.6056728267673303	2.0181491747787974	0.21869035420293906	0.4260867777276994	2.0545741942362836	0.2664931144198784	0.44154599864958155	2.0509273261541274	0.2195680167342933	0.6825392867722416	2.076432481671652	0.037033497527248764	0.4230786923529906	1.2354332017365142	0.04012344207995764	0.5064673755011018	1.6376257215400918	0.03898609371200947	0.5704926350227035	2.0221628964719467	0.078010049936499	0.4485842616013629	2.066444169576961	0.008358789984171536	0.4563795543344972	2.0626145985043105	0.048551251367576265	0.6180787337330785	2.060294439352479	0.16280768706385673	0.3517928810940769	0.7027728366553889	0.18107098635587757	0.2835058500726926	0.462816613561855	0.15883679002221487	0.20766344952751678	0.5855072602962859	0.3108379094886246	0.3424976617525044	0.796219358644161	0.37358262110256696	0.42119321009181676	1.0621613742882954	0.3507163557807032	0.37942554312799043	1.310959297950247	0.2862126991147004	0.3259067204665271	1.4117358020924877	0.30495801840813686	0.34667195208769636	1.4442247108233794	0.33115866776913966	0.40217345391651804	1.4518512338324951	0.016371034356151917	0.3586440833918683	0.7800278513000717	-0.06124519421024231	0.3916231167027315	1.0330665229774751	-0.046452791006698	0.36829549299850817	1.282697992092733	-0.0019055789118301845	0.3579397728450691	1.3985151185643294	-0.030357869497958614	0.33700670727256987	1.4137875881700686	-0.07123156668038706	0.40356428215221546	1.4248727262184124
3	0.05	0.2533745554014707	0.4300555251434267	1.2439536616902709	0.23507526499780979	0.5198864399014526	1.6277045569318582	0.2324264226362653	0.6057516389998618	2.018316626729311	0.2186590954774386	0.4260284634062829	2.054802187940968	0.26655409266004804	0.44157744087277606	2.0511965828737764	0.2184180470961328	0.683858858895567	2.0822047681763847	0.0370718842151936	0.4230396131175608	1.2353115802044081	0.04009338203648907	0.5065547547057376	1.6376224075578756	0.03898616642157024	0.5705716728017862	2.022274066893496	0.08069935995464456	0.4620294357746302	2.0731212262831034	0.00840833355348198	0.45683162307322833	2.0633103782814226	0.048783446003459296	0.6183890781590585	2.060726530794351	0.16279133683576988	0.35180793460216575	0.7027258362697837	0.18111309547394852	0.2834242118062956	0.46275346285871827	0.1586367988164001	0.20596241481673538	0.5820833692688767	0.3143608110630629	0.35395751309210166	0.7970940244878318	0.37357521933340604	0.4210149927835223	1.0621471852360194	0.35117919979390727	0.37969289974052056	1.311481531025527	0.2947842779886217	0.314655177308257	1.4087996638954468	0.309187023489364	0.35829854481164514	1.4474834932933087	0.3307008959306138	0.40299529497147674	1.4558768020222002	0.016716232147321732	0.3578262514121962	0.7767555547135169	-0.061267050042519734	0.3917410126585592	1.0330264208311422	-0.046537639411816045	0.3683422970161847	1.2826325364967717	-0.005271033645389456	0.3566975143277814	1.3981749039704028	-0.030438695732443687	0.3372613434368525	1.4138856629946301	-0.07254271247777741	0.3896222460669802	1.417102495080562
